<svg width="344" height="200" viewBox="0 0 344 200" fill="none" xmlns="http://www.w3.org/2000/svg">
<rect width="344" height="200" rx="24" fill="#767680" fill-opacity="0.3"/>
<path d="M27.5483 39V30.8687H24.5967V29.8403H31.6426V30.8687H28.6909V39H27.5483ZM34.7301 39.1206C34.0826 39.1206 33.5219 38.9788 33.0479 38.6953C32.5782 38.4076 32.2143 37.9992 31.9561 37.4702C31.7022 36.9412 31.5753 36.3128 31.5753 35.585V35.5723C31.5753 34.8402 31.7022 34.2096 31.9561 33.6807C32.2143 33.1517 32.5782 32.7454 33.0479 32.4619C33.5219 32.1784 34.0826 32.0366 34.7301 32.0366C35.3818 32.0366 35.9425 32.1784 36.4122 32.4619C36.8819 32.7454 37.2437 33.1517 37.4976 33.6807C37.7558 34.2096 37.8848 34.8402 37.8848 35.5723V35.585C37.8848 36.3128 37.7558 36.9412 37.4976 37.4702C37.2437 37.9992 36.8819 38.4076 36.4122 38.6953C35.9425 38.9788 35.3818 39.1206 34.7301 39.1206ZM34.7301 38.1431C35.1617 38.1431 35.5277 38.0415 35.8282 37.8384C36.1287 37.6353 36.3572 37.3433 36.5138 36.9624C36.6746 36.5815 36.755 36.1224 36.755 35.585V35.5723C36.755 35.0306 36.6746 34.5693 36.5138 34.1885C36.3572 33.8076 36.1287 33.5177 35.8282 33.3188C35.5277 33.1157 35.1617 33.0142 34.7301 33.0142C34.2984 33.0142 33.9324 33.1157 33.6319 33.3188C33.3315 33.5177 33.1008 33.8076 32.94 34.1885C32.7834 34.5693 32.7052 35.0306 32.7052 35.5723V35.585C32.7052 36.1224 32.7834 36.5815 32.94 36.9624C33.1008 37.3433 33.3315 37.6353 33.6319 37.8384C33.9324 38.0415 34.2984 38.1431 34.7301 38.1431ZM42.0451 39.1206C41.4696 39.1206 40.966 38.9746 40.5343 38.6826C40.1027 38.3906 39.7684 37.9801 39.5314 37.4512C39.2944 36.918 39.1759 36.2959 39.1759 35.585V35.5723C39.1759 34.8571 39.2944 34.235 39.5314 33.7061C39.7684 33.1771 40.1006 32.7666 40.528 32.4746C40.9596 32.1826 41.4653 32.0366 42.0451 32.0366C42.3582 32.0366 42.6523 32.0874 42.9274 32.189C43.2067 32.2863 43.4543 32.4238 43.6701 32.6016C43.8859 32.7793 44.0552 32.9909 44.1779 33.2363H44.2795V29.4404H45.3839V39H44.2795V37.9082H44.1779C44.0382 38.1621 43.8626 38.38 43.651 38.562C43.4394 38.7397 43.1982 38.8773 42.9274 38.9746C42.6566 39.0719 42.3625 39.1206 42.0451 39.1206ZM42.299 38.1431C42.7137 38.1431 43.0713 38.0394 43.3717 37.832C43.6722 37.6247 43.9028 37.3306 44.0636 36.9497C44.2244 36.5646 44.3048 36.1097 44.3048 35.585V35.5723C44.3048 35.0433 44.2244 34.5884 44.0636 34.2075C43.9028 33.8267 43.6722 33.5326 43.3717 33.3252C43.0713 33.1178 42.7137 33.0142 42.299 33.0142C41.8843 33.0142 41.5267 33.1178 41.2262 33.3252C40.93 33.5283 40.7015 33.8203 40.5407 34.2012C40.3841 34.582 40.3058 35.0391 40.3058 35.5723V35.585C40.3058 36.1139 40.3841 36.571 40.5407 36.9561C40.7015 37.3369 40.93 37.631 41.2262 37.8384C41.5267 38.0415 41.8843 38.1431 42.299 38.1431ZM49.303 39.1206C48.8713 39.1206 48.482 39.0381 48.135 38.873C47.7922 38.708 47.5193 38.4731 47.3162 38.1685C47.1173 37.8638 47.0178 37.5041 47.0178 37.0894V37.0767C47.0178 36.6704 47.1151 36.3234 47.3098 36.0356C47.5045 35.7437 47.788 35.5151 48.1604 35.3501C48.5328 35.1851 48.9835 35.0877 49.5124 35.0581L52.0261 34.9058V35.7881L49.6457 35.9404C49.1252 35.9701 48.7444 36.078 48.5032 36.2642C48.2662 36.4504 48.1477 36.7127 48.1477 37.0513V37.064C48.1477 37.411 48.2789 37.6818 48.5413 37.8765C48.8036 38.0669 49.1337 38.1621 49.5315 38.1621C49.9081 38.1621 50.2424 38.0881 50.5344 37.9399C50.8264 37.7876 51.0549 37.5824 51.22 37.3242C51.3892 37.0661 51.4739 36.7741 51.4739 36.4482V34.3154C51.4739 33.8923 51.3448 33.5706 51.0867 33.3506C50.8328 33.1263 50.4498 33.0142 49.9377 33.0142C49.5273 33.0142 49.1908 33.0882 48.9285 33.2363C48.6661 33.3802 48.4905 33.5854 48.4016 33.8521L48.3953 33.8711H47.2908L47.2971 33.833C47.3564 33.4733 47.5045 33.1602 47.7414 32.8936C47.9827 32.6227 48.2937 32.4132 48.6746 32.2651C49.0554 32.1128 49.4892 32.0366 49.9758 32.0366C50.5344 32.0366 51.0063 32.1276 51.3913 32.3096C51.7807 32.4915 52.0748 32.7539 52.2737 33.0967C52.4768 33.4352 52.5784 33.8415 52.5784 34.3154V39H51.4739V37.9907H51.3723C51.2284 38.2319 51.0528 38.4372 50.8454 38.6064C50.6423 38.7757 50.4117 38.9048 50.1536 38.9937C49.8954 39.0783 49.6119 39.1206 49.303 39.1206ZM54.847 41.3994C54.7751 41.3994 54.6946 41.3952 54.6058 41.3867C54.5169 41.3825 54.4344 41.374 54.3582 41.3613V40.4536C54.4259 40.4663 54.5 40.4748 54.5804 40.479C54.6608 40.4832 54.7391 40.4854 54.8153 40.4854C55.1284 40.4854 55.3844 40.4049 55.5833 40.2441C55.7864 40.0833 55.9494 39.8062 56.0721 39.4126L56.199 39.0063L53.6663 32.1572H54.847L56.9544 38.4795L56.5164 37.7876H57.0369L56.5989 38.4795L58.7 32.1572H59.8616L57.1893 39.4189C57.0031 39.931 56.8063 40.3309 56.5989 40.6187C56.3916 40.9064 56.1483 41.1074 55.869 41.2217C55.5939 41.3402 55.2532 41.3994 54.847 41.3994ZM61.6859 33.4521L61.5526 29.8403H62.7333L62.6 33.4521H61.6859ZM67.3696 39.1206C66.8618 39.1206 66.4132 39.0444 66.0239 38.8921C65.6346 38.7355 65.3214 38.5176 65.0845 38.2383C64.8517 37.959 64.7142 37.631 64.6719 37.2544H65.8017C65.8948 37.5379 66.0768 37.7664 66.3476 37.9399C66.6185 38.1134 66.9718 38.2002 67.4077 38.2002C67.7166 38.2002 67.9874 38.1558 68.2202 38.0669C68.4572 37.9738 68.6434 37.849 68.7788 37.6924C68.9142 37.5316 68.9819 37.3475 68.9819 37.1401V37.1274C68.9819 36.8947 68.8888 36.6979 68.7026 36.5371C68.5164 36.3721 68.2117 36.2388 67.7886 36.1372L66.7285 35.8833C66.3011 35.7817 65.9499 35.6506 65.6748 35.4897C65.3997 35.3247 65.1966 35.1237 65.0654 34.8867C64.9342 34.6455 64.8686 34.362 64.8686 34.0361V34.0298C64.8686 33.6489 64.9787 33.3083 65.1987 33.0078C65.423 32.7074 65.7277 32.4704 66.1128 32.2969C66.4979 32.1234 66.9316 32.0366 67.414 32.0366C67.8922 32.0366 68.3154 32.1128 68.6836 32.2651C69.056 32.4132 69.3543 32.6248 69.5786 32.8999C69.8071 33.175 69.9468 33.4987 69.9975 33.8711H68.9121C68.8402 33.6003 68.6751 33.3802 68.417 33.2109C68.1588 33.0417 67.8224 32.957 67.4077 32.957C67.1369 32.957 66.8957 33.0015 66.6841 33.0903C66.4725 33.175 66.3053 33.2935 66.1826 33.4458C66.0599 33.5981 65.9985 33.7759 65.9985 33.979V33.9917C65.9985 34.144 66.0387 34.2795 66.1191 34.3979C66.1995 34.5164 66.3244 34.6201 66.4936 34.709C66.6629 34.7979 66.8808 34.8761 67.1474 34.9438L68.2012 35.1978C68.8444 35.3543 69.3226 35.5786 69.6357 35.8706C69.9531 36.1626 70.1118 36.554 70.1118 37.0449V37.0576C70.1118 37.4639 69.9912 37.8236 69.75 38.1367C69.5088 38.4456 69.1808 38.6868 68.7661 38.8604C68.3556 39.0339 67.8901 39.1206 67.3696 39.1206ZM75.4616 39V29.8403H81.0221V30.8687H76.6041V34.0171H80.6603V35.0327H76.6041V39H75.4616ZM82.7448 39V29.4404H83.8493V39H82.7448ZM88.7015 39.1206C88.054 39.1206 87.4933 38.9788 87.0193 38.6953C86.5496 38.4076 86.1857 37.9992 85.9275 37.4702C85.6736 36.9412 85.5467 36.3128 85.5467 35.585V35.5723C85.5467 34.8402 85.6736 34.2096 85.9275 33.6807C86.1857 33.1517 86.5496 32.7454 87.0193 32.4619C87.4933 32.1784 88.054 32.0366 88.7015 32.0366C89.3532 32.0366 89.9139 32.1784 90.3836 32.4619C90.8533 32.7454 91.2151 33.1517 91.469 33.6807C91.7272 34.2096 91.8563 34.8402 91.8563 35.5723V35.585C91.8563 36.3128 91.7272 36.9412 91.469 37.4702C91.2151 37.9992 90.8533 38.4076 90.3836 38.6953C89.9139 38.9788 89.3532 39.1206 88.7015 39.1206ZM88.7015 38.1431C89.1331 38.1431 89.4992 38.0415 89.7996 37.8384C90.1001 37.6353 90.3286 37.3433 90.4852 36.9624C90.646 36.5815 90.7264 36.1224 90.7264 35.585V35.5723C90.7264 35.0306 90.646 34.5693 90.4852 34.1885C90.3286 33.8076 90.1001 33.5177 89.7996 33.3188C89.4992 33.1157 89.1331 33.0142 88.7015 33.0142C88.2698 33.0142 87.9038 33.1157 87.6033 33.3188C87.3029 33.5177 87.0722 33.8076 86.9114 34.1885C86.7549 34.5693 86.6766 35.0306 86.6766 35.5723V35.585C86.6766 36.1224 86.7549 36.5815 86.9114 36.9624C87.0722 37.3433 87.3029 37.6353 87.6033 37.8384C87.9038 38.0415 88.2698 38.1431 88.7015 38.1431ZM94.5565 39L92.6395 32.1572H93.744L95.0897 37.6289H95.1913L96.7211 32.1572H97.7684L99.2982 37.6289H99.3998L100.745 32.1572H101.844L99.9266 39H98.8158L97.286 33.7061H97.1845L95.661 39H94.5565Z" fill="#8E8E93"/>
<path d="M146.992 53V29.0439H156.887C158.68 29.0439 160.213 29.3483 161.485 29.957C162.769 30.5658 163.749 31.4456 164.424 32.5967C165.11 33.7367 165.453 35.109 165.453 36.7139V36.7471C165.453 38.3187 165.06 39.7188 164.274 40.9473C163.5 42.1758 162.448 43.0501 161.12 43.5703L166.167 53H160.489L156.023 44.3174C155.99 44.3174 155.951 44.3174 155.907 44.3174C155.863 44.3174 155.819 44.3174 155.774 44.3174H152.006V53H146.992ZM152.006 40.5156H156.339C157.59 40.5156 158.563 40.1836 159.261 39.5195C159.969 38.8444 160.323 37.9202 160.323 36.7471V36.7139C160.323 35.5628 159.958 34.6497 159.228 33.9746C158.497 33.2995 157.512 32.9619 156.272 32.9619H152.006V40.5156ZM176.214 53.3652C174.399 53.3652 172.838 52.9945 171.532 52.2529C170.226 51.5003 169.219 50.4323 168.511 49.0488C167.814 47.6654 167.465 46.0273 167.465 44.1348V44.1182C167.465 42.2256 167.814 40.5876 168.511 39.2041C169.219 37.8096 170.21 36.736 171.483 35.9834C172.766 35.2197 174.277 34.8379 176.015 34.8379C177.752 34.8379 179.252 35.2087 180.514 35.9502C181.787 36.6807 182.766 37.7155 183.452 39.0547C184.149 40.3939 184.498 41.96 184.498 43.7529V45.2471H169.839V42.1924H182.207L179.899 45.0479V43.1885C179.899 42.1481 179.739 41.2793 179.418 40.582C179.097 39.8737 178.649 39.3424 178.073 38.9883C177.509 38.6341 176.85 38.457 176.098 38.457C175.345 38.457 174.676 38.6396 174.089 39.0049C173.513 39.3701 173.06 39.9069 172.728 40.6152C172.407 41.3125 172.246 42.1702 172.246 43.1885V45.0645C172.246 46.0495 172.407 46.8906 172.728 47.5879C173.06 48.2852 173.53 48.8219 174.139 49.1982C174.747 49.5635 175.472 49.7461 176.314 49.7461C176.978 49.7461 177.553 49.641 178.04 49.4307C178.527 49.2204 178.926 48.9548 179.235 48.6338C179.545 48.3128 179.756 47.9863 179.866 47.6543L179.899 47.5547H184.349L184.299 47.7373C184.166 48.3903 183.906 49.0488 183.519 49.7129C183.131 50.377 182.606 50.9857 181.941 51.5391C181.288 52.0924 180.486 52.5352 179.534 52.8672C178.594 53.1992 177.487 53.3652 176.214 53.3652ZM192.221 53.2822C191.037 53.2822 189.996 53.0553 189.1 52.6016C188.203 52.1367 187.5 51.5003 186.991 50.6924C186.493 49.8734 186.244 48.9437 186.244 47.9033V47.8701C186.244 46.7855 186.515 45.8613 187.058 45.0977C187.6 44.3229 188.386 43.7142 189.415 43.2715C190.444 42.8288 191.695 42.5576 193.167 42.458L200.107 42.0264V45.0479L193.898 45.4463C192.968 45.5016 192.26 45.723 191.773 46.1104C191.286 46.4867 191.042 46.9902 191.042 47.6211V47.6543C191.042 48.3073 191.291 48.8219 191.789 49.1982C192.287 49.5635 192.957 49.7461 193.798 49.7461C194.517 49.7461 195.159 49.6077 195.724 49.3311C196.299 49.0433 196.748 48.6559 197.069 48.1689C197.401 47.6709 197.567 47.112 197.567 46.4922V41.0967C197.567 40.3109 197.318 39.6911 196.819 39.2373C196.321 38.7725 195.597 38.54 194.645 38.54C193.737 38.54 193.018 38.7282 192.486 39.1045C191.955 39.4808 191.629 39.9567 191.507 40.5322L191.474 40.6816H187.041L187.058 40.4824C187.146 39.3867 187.506 38.4128 188.137 37.5605C188.779 36.7083 189.664 36.0443 190.793 35.5684C191.933 35.0814 193.283 34.8379 194.844 34.8379C196.382 34.8379 197.716 35.0869 198.845 35.585C199.974 36.0719 200.848 36.7637 201.468 37.6602C202.099 38.5566 202.414 39.6025 202.414 40.7979V53H197.567V50.3438H197.467C197.135 50.9525 196.703 51.4782 196.172 51.9209C195.652 52.3525 195.06 52.6901 194.396 52.9336C193.732 53.166 193.007 53.2822 192.221 53.2822ZM212.063 53.3652C210.569 53.3652 209.279 52.9945 208.195 52.2529C207.11 51.5114 206.274 50.4489 205.688 49.0654C205.112 47.682 204.824 46.0273 204.824 44.1016V44.085C204.824 42.1481 205.118 40.4935 205.704 39.1211C206.291 37.7376 207.121 36.6807 208.195 35.9502C209.279 35.2087 210.569 34.8379 212.063 34.8379C212.904 34.8379 213.679 34.9762 214.387 35.2529C215.095 35.5296 215.715 35.9281 216.246 36.4482C216.789 36.9574 217.22 37.5716 217.541 38.291H217.641V29.0439H222.489V53H217.641V49.9619H217.541C217.231 50.6702 216.811 51.279 216.28 51.7881C215.748 52.2861 215.128 52.6735 214.42 52.9502C213.712 53.2269 212.926 53.3652 212.063 53.3652ZM213.69 49.3477C214.475 49.3477 215.167 49.1374 215.765 48.7168C216.363 48.2852 216.827 47.6764 217.159 46.8906C217.491 46.1048 217.657 45.1751 217.657 44.1016V44.085C217.657 43.0114 217.486 42.0872 217.143 41.3125C216.811 40.5267 216.346 39.9235 215.748 39.5029C215.162 39.0713 214.475 38.8555 213.69 38.8555C212.882 38.8555 212.184 39.0658 211.598 39.4863C211.011 39.9069 210.558 40.5101 210.237 41.2959C209.916 42.0706 209.755 43.0003 209.755 44.085V44.1016C209.755 45.1751 209.91 46.1048 210.22 46.8906C210.541 47.6764 210.995 48.2852 211.581 48.7168C212.179 49.1374 212.882 49.3477 213.69 49.3477ZM228.435 58.8604C227.959 58.8604 227.5 58.8382 227.057 58.7939C226.614 58.7497 226.249 58.6999 225.961 58.6445V55.042C226.138 55.0752 226.365 55.1084 226.642 55.1416C226.919 55.1859 227.234 55.208 227.588 55.208C228.319 55.208 228.894 55.0863 229.315 54.8428C229.735 54.5993 230.051 54.1787 230.261 53.5811L230.477 53L224.185 35.2031H229.514L233.532 50.0781L232.884 49.1152H233.797L233.15 50.0781L237.167 35.2031H242.281L236.171 53.3154C235.706 54.71 235.12 55.8112 234.411 56.6191C233.714 57.4271 232.873 58.0026 231.888 58.3457C230.903 58.6888 229.752 58.8604 228.435 58.8604Z" fill="#8E8E93"/>
<path d="M27.5483 82V73.8687H24.5967V72.8403H31.6426V73.8687H28.6909V82H27.5483ZM34.7301 82.1206C34.0826 82.1206 33.5219 81.9788 33.0479 81.6953C32.5782 81.4076 32.2143 80.9992 31.9561 80.4702C31.7022 79.9412 31.5753 79.3128 31.5753 78.585V78.5723C31.5753 77.8402 31.7022 77.2096 31.9561 76.6807C32.2143 76.1517 32.5782 75.7454 33.0479 75.4619C33.5219 75.1784 34.0826 75.0366 34.7301 75.0366C35.3818 75.0366 35.9425 75.1784 36.4122 75.4619C36.8819 75.7454 37.2437 76.1517 37.4976 76.6807C37.7558 77.2096 37.8848 77.8402 37.8848 78.5723V78.585C37.8848 79.3128 37.7558 79.9412 37.4976 80.4702C37.2437 80.9992 36.8819 81.4076 36.4122 81.6953C35.9425 81.9788 35.3818 82.1206 34.7301 82.1206ZM34.7301 81.1431C35.1617 81.1431 35.5277 81.0415 35.8282 80.8384C36.1287 80.6353 36.3572 80.3433 36.5138 79.9624C36.6746 79.5815 36.755 79.1224 36.755 78.585V78.5723C36.755 78.0306 36.6746 77.5693 36.5138 77.1885C36.3572 76.8076 36.1287 76.5177 35.8282 76.3188C35.5277 76.1157 35.1617 76.0142 34.7301 76.0142C34.2984 76.0142 33.9324 76.1157 33.6319 76.3188C33.3315 76.5177 33.1008 76.8076 32.94 77.1885C32.7834 77.5693 32.7052 78.0306 32.7052 78.5723V78.585C32.7052 79.1224 32.7834 79.5815 32.94 79.9624C33.1008 80.3433 33.3315 80.6353 33.6319 80.8384C33.9324 81.0415 34.2984 81.1431 34.7301 81.1431ZM41.9499 82.0508C41.2474 82.0508 40.7375 81.909 40.4201 81.6255C40.1069 81.342 39.9504 80.8743 39.9504 80.2227V76.0713H38.8713V75.1572H39.9504V73.3862H41.0929V75.1572H42.591V76.0713H41.0929V79.9434C41.0929 80.3454 41.1691 80.6353 41.3214 80.813C41.4738 80.9865 41.7277 81.0732 42.0832 81.0732C42.1805 81.0732 42.263 81.0711 42.3307 81.0669C42.4027 81.0627 42.4894 81.0563 42.591 81.0479V81.9873C42.4852 82.0042 42.3794 82.019 42.2736 82.0317C42.1678 82.0444 42.0599 82.0508 41.9499 82.0508ZM46.0403 82.1206C45.6086 82.1206 45.2193 82.0381 44.8723 81.873C44.5295 81.708 44.2566 81.4731 44.0535 81.1685C43.8546 80.8638 43.7551 80.5041 43.7551 80.0894V80.0767C43.7551 79.6704 43.8524 79.3234 44.0471 79.0356C44.2418 78.7437 44.5253 78.5151 44.8977 78.3501C45.2701 78.1851 45.7208 78.0877 46.2497 78.0581L48.7634 77.9058V78.7881L46.383 78.9404C45.8625 78.9701 45.4817 79.078 45.2405 79.2642C45.0035 79.4504 44.885 79.7127 44.885 80.0513V80.064C44.885 80.411 45.0162 80.6818 45.2786 80.8765C45.5409 81.0669 45.871 81.1621 46.2688 81.1621C46.6454 81.1621 46.9797 81.0881 47.2717 80.9399C47.5637 80.7876 47.7922 80.5824 47.9573 80.3242C48.1265 80.0661 48.2112 79.7741 48.2112 79.4482V77.3154C48.2112 76.8923 48.0821 76.5706 47.824 76.3506C47.5701 76.1263 47.1871 76.0142 46.675 76.0142C46.2646 76.0142 45.9281 76.0882 45.6658 76.2363C45.4034 76.3802 45.2278 76.5854 45.1389 76.8521L45.1326 76.8711H44.0281L44.0344 76.833C44.0937 76.4733 44.2418 76.1602 44.4788 75.8936C44.72 75.6227 45.031 75.4132 45.4119 75.2651C45.7927 75.1128 46.2265 75.0366 46.7131 75.0366C47.2717 75.0366 47.7436 75.1276 48.1287 75.3096C48.518 75.4915 48.8121 75.7539 49.011 76.0967C49.2141 76.4352 49.3157 76.8415 49.3157 77.3154V82H48.2112V80.9907H48.1096C47.9657 81.2319 47.7901 81.4372 47.5828 81.6064C47.3796 81.7757 47.149 81.9048 46.8909 81.9937C46.6327 82.0783 46.3492 82.1206 46.0403 82.1206ZM51.3177 82V72.4404H52.4222V82H51.3177ZM58.1782 82V72.8403H63.7388V73.8687H59.3208V77.0171H63.3769V78.0327H59.3208V82H58.1782ZM68.21 82.1206C67.5626 82.1206 67.0018 81.9788 66.5279 81.6953C66.0582 81.4076 65.6942 80.9992 65.4361 80.4702C65.1822 79.9412 65.0552 79.3128 65.0552 78.585V78.5723C65.0552 77.8402 65.1822 77.2096 65.4361 76.6807C65.6942 76.1517 66.0582 75.7454 66.5279 75.4619C67.0018 75.1784 67.5626 75.0366 68.21 75.0366C68.8617 75.0366 69.4224 75.1784 69.8921 75.4619C70.3619 75.7454 70.7237 76.1517 70.9776 76.6807C71.2357 77.2096 71.3648 77.8402 71.3648 78.5723V78.585C71.3648 79.3128 71.2357 79.9412 70.9776 80.4702C70.7237 80.9992 70.3619 81.4076 69.8921 81.6953C69.4224 81.9788 68.8617 82.1206 68.21 82.1206ZM68.21 81.1431C68.6417 81.1431 69.0077 81.0415 69.3082 80.8384C69.6086 80.6353 69.8371 80.3433 69.9937 79.9624C70.1545 79.5815 70.2349 79.1224 70.2349 78.585V78.5723C70.2349 78.0306 70.1545 77.5693 69.9937 77.1885C69.8371 76.8076 69.6086 76.5177 69.3082 76.3188C69.0077 76.1157 68.6417 76.0142 68.21 76.0142C67.7784 76.0142 67.4123 76.1157 67.1119 76.3188C66.8114 76.5177 66.5808 76.8076 66.42 77.1885C66.2634 77.5693 66.1851 78.0306 66.1851 78.5723V78.585C66.1851 79.1224 66.2634 79.5815 66.42 79.9624C66.5808 80.3433 66.8114 80.6353 67.1119 80.8384C67.4123 81.0415 67.7784 81.1431 68.21 81.1431ZM75.798 82.1206C75.159 82.1206 74.6046 81.9746 74.1349 81.6826C73.6652 81.3906 73.3012 80.978 73.0431 80.4448C72.785 79.9116 72.6559 79.2832 72.6559 78.5596V78.5469C72.6559 77.8359 72.7829 77.2181 73.0368 76.6934C73.2949 76.1686 73.6588 75.7624 74.1286 75.4746C74.5983 75.1826 75.1526 75.0366 75.7916 75.0366C76.346 75.0366 76.8242 75.134 77.2262 75.3286C77.6282 75.5233 77.9498 75.7856 78.1911 76.1157C78.4323 76.4416 78.5867 76.8076 78.6544 77.2139L78.6608 77.252H77.5626L77.5563 77.2329C77.4717 76.8944 77.2791 76.6066 76.9787 76.3696C76.6782 76.1326 76.2825 76.0142 75.7916 76.0142C75.3812 76.0142 75.0257 76.1178 74.7252 76.3252C74.4248 76.5326 74.192 76.8267 74.027 77.2075C73.8662 77.5841 73.7858 78.0306 73.7858 78.5469V78.5596C73.7858 79.0843 73.8683 79.5413 74.0333 79.9307C74.1984 80.3158 74.4311 80.6141 74.7316 80.8257C75.032 81.0373 75.3854 81.1431 75.7916 81.1431C76.2529 81.1431 76.6295 81.0436 76.9215 80.8447C77.2135 80.6458 77.423 80.356 77.5499 79.9751L77.5626 79.937L78.6544 79.9307L78.6417 80.0005C78.5486 80.411 78.3836 80.777 78.1466 81.0986C77.9096 81.416 77.5965 81.6657 77.2072 81.8477C76.8178 82.0296 76.3481 82.1206 75.798 82.1206ZM82.4846 82.1206C81.9683 82.1206 81.5346 82.0233 81.1833 81.8286C80.8321 81.6297 80.5676 81.342 80.3899 80.9653C80.2164 80.5845 80.1296 80.1253 80.1296 79.5879V75.1572H81.2341V79.3213C81.2341 79.9349 81.3526 80.3919 81.5896 80.6924C81.8308 80.9928 82.2243 81.1431 82.7702 81.1431C83.0707 81.1431 83.3352 81.0986 83.5637 81.0098C83.7964 80.9209 83.9911 80.7939 84.1477 80.6289C84.3043 80.4596 84.4206 80.2565 84.4968 80.0195C84.5772 79.7783 84.6174 79.5075 84.6174 79.207V75.1572H85.7219V82H84.6174V80.978H84.5158C84.4058 81.2192 84.2556 81.4266 84.0652 81.6001C83.8747 81.7694 83.6462 81.8984 83.3796 81.9873C83.1172 82.0762 82.8189 82.1206 82.4846 82.1206ZM90.0535 82.1206C89.5457 82.1206 89.0971 82.0444 88.7078 81.8921C88.3185 81.7355 88.0053 81.5176 87.7684 81.2383C87.5356 80.959 87.3981 80.631 87.3558 80.2544H88.4856C88.5787 80.5379 88.7607 80.7664 89.0315 80.9399C89.3024 81.1134 89.6557 81.2002 90.0916 81.2002C90.4005 81.2002 90.6714 81.1558 90.9041 81.0669C91.1411 80.9738 91.3273 80.849 91.4627 80.6924C91.5981 80.5316 91.6658 80.3475 91.6658 80.1401V80.1274C91.6658 79.8947 91.5727 79.6979 91.3865 79.5371C91.2003 79.3721 90.8956 79.2388 90.4725 79.1372L89.4124 78.8833C88.985 78.7817 88.6338 78.6506 88.3587 78.4897C88.0836 78.3247 87.8805 78.1237 87.7493 77.8867C87.6181 77.6455 87.5525 77.362 87.5525 77.0361V77.0298C87.5525 76.6489 87.6626 76.3083 87.8826 76.0078C88.1069 75.7074 88.4116 75.4704 88.7967 75.2969C89.1818 75.1234 89.6155 75.0366 90.0979 75.0366C90.5761 75.0366 90.9993 75.1128 91.3675 75.2651C91.7399 75.4132 92.0382 75.6248 92.2625 75.8999C92.491 76.175 92.6307 76.4987 92.6814 76.8711H91.596C91.5241 76.6003 91.359 76.3802 91.1009 76.2109C90.8427 76.0417 90.5063 75.957 90.0916 75.957C89.8208 75.957 89.5796 76.0015 89.368 76.0903C89.1564 76.175 88.9892 76.2935 88.8665 76.4458C88.7438 76.5981 88.6824 76.7759 88.6824 76.979V76.9917C88.6824 77.144 88.7226 77.2795 88.803 77.3979C88.8834 77.5164 89.0083 77.6201 89.1775 77.709C89.3468 77.7979 89.5647 77.8761 89.8313 77.9438L90.8851 78.1978C91.5283 78.3543 92.0065 78.5786 92.3196 78.8706C92.637 79.1626 92.7957 79.554 92.7957 80.0449V80.0576C92.7957 80.4639 92.6751 80.8236 92.4339 81.1367C92.1927 81.4456 91.8647 81.6868 91.45 81.8604C91.0395 82.0339 90.574 82.1206 90.0535 82.1206Z" fill="#8E8E93"/>
<path d="M24 125C24 120.582 27.5817 117 32 117H40C44.4183 117 48 120.582 48 125V168H24V125Z" stroke="#8E8E93" stroke-width="0.5" stroke-dasharray="3 3"/>
<path d="M24 168L321 168" stroke="#8E8E93" stroke-width="0.5"/>
<path d="M31.4868 181V171.84H32.8135L35.9492 179.483H36.0508L39.1865 171.84H40.5132V181H39.4468V174.005H38.8882L40.1704 172.094L36.4824 181H35.5176L31.8359 172.094L33.1118 174.005H32.5532V181H31.4868Z" fill="white"/>
<path d="M80.9287 181V172.869H77.9771V171.84H85.0229V172.869H82.0713V181H80.9287Z" fill="white"/>
<path d="M123.775 181L121.281 171.84H122.474L124.296 179.286H124.372L126.422 171.84H127.578L129.628 179.286H129.704L131.526 171.84H132.719L130.225 181H129.146L127.038 173.77H126.962L124.854 181H123.775Z" fill="white"/>
<path d="M171.929 181V172.869H168.977V171.84H176.023V172.869H173.071V181H171.929Z" fill="white"/>
<path d="M215.448 181V171.84H221.009V172.869H216.591V176.017H220.647V177.033H216.591V181H215.448Z" fill="white"/>
<path d="M263.525 181.216C262.857 181.216 262.273 181.108 261.773 180.892C261.278 180.672 260.885 180.372 260.593 179.991C260.305 179.606 260.138 179.166 260.091 178.67L260.085 178.601H261.228L261.234 178.67C261.264 178.975 261.38 179.24 261.583 179.464C261.79 179.684 262.065 179.855 262.408 179.978C262.755 180.101 263.149 180.162 263.589 180.162C264.004 180.162 264.372 180.097 264.693 179.965C265.019 179.83 265.275 179.644 265.461 179.407C265.648 179.17 265.741 178.897 265.741 178.588V178.582C265.741 178.201 265.601 177.881 265.322 177.623C265.042 177.361 264.588 177.16 263.957 177.02L262.941 176.798C262.023 176.595 261.354 176.282 260.936 175.858C260.521 175.431 260.313 174.885 260.313 174.221V174.214C260.318 173.707 260.455 173.258 260.726 172.869C261.001 172.479 261.38 172.175 261.862 171.955C262.349 171.735 262.908 171.625 263.538 171.625C264.147 171.625 264.687 171.735 265.157 171.955C265.626 172.17 265.999 172.462 266.274 172.831C266.553 173.199 266.708 173.611 266.737 174.068L266.744 174.157H265.601L265.588 174.075C265.546 173.804 265.436 173.565 265.258 173.357C265.081 173.146 264.844 172.979 264.547 172.856C264.251 172.733 263.904 172.674 263.506 172.678C263.125 172.678 262.783 172.737 262.478 172.856C262.173 172.974 261.93 173.146 261.748 173.37C261.57 173.59 261.481 173.861 261.481 174.183V174.189C261.481 174.553 261.617 174.86 261.888 175.109C262.159 175.359 262.605 175.552 263.227 175.687L264.243 175.916C264.882 176.055 265.396 176.237 265.785 176.461C266.174 176.686 266.458 176.961 266.636 177.287C266.818 177.608 266.909 177.989 266.909 178.429V178.436C266.909 179.007 266.769 179.5 266.49 179.915C266.21 180.329 265.817 180.651 265.309 180.879C264.801 181.104 264.207 181.216 263.525 181.216Z" fill="white"/>
<path d="M309.025 181.216C308.357 181.216 307.773 181.108 307.273 180.892C306.778 180.672 306.385 180.372 306.093 179.991C305.805 179.606 305.638 179.166 305.591 178.67L305.585 178.601H306.728L306.734 178.67C306.764 178.975 306.88 179.24 307.083 179.464C307.29 179.684 307.565 179.855 307.908 179.978C308.255 180.101 308.649 180.162 309.089 180.162C309.504 180.162 309.872 180.097 310.193 179.965C310.519 179.83 310.775 179.644 310.961 179.407C311.148 179.17 311.241 178.897 311.241 178.588V178.582C311.241 178.201 311.101 177.881 310.822 177.623C310.542 177.361 310.088 177.16 309.457 177.02L308.441 176.798C307.523 176.595 306.854 176.282 306.436 175.858C306.021 175.431 305.813 174.885 305.813 174.221V174.214C305.818 173.707 305.955 173.258 306.226 172.869C306.501 172.479 306.88 172.175 307.362 171.955C307.849 171.735 308.408 171.625 309.038 171.625C309.647 171.625 310.187 171.735 310.657 171.955C311.126 172.17 311.499 172.462 311.774 172.831C312.053 173.199 312.208 173.611 312.237 174.068L312.244 174.157H311.101L311.088 174.075C311.046 173.804 310.936 173.565 310.758 173.357C310.581 173.146 310.344 172.979 310.047 172.856C309.751 172.733 309.404 172.674 309.006 172.678C308.625 172.678 308.283 172.737 307.978 172.856C307.673 172.974 307.43 173.146 307.248 173.37C307.07 173.59 306.981 173.861 306.981 174.183V174.189C306.981 174.553 307.117 174.86 307.388 175.109C307.659 175.359 308.105 175.552 308.727 175.687L309.743 175.916C310.382 176.055 310.896 176.237 311.285 176.461C311.674 176.686 311.958 176.961 312.136 177.287C312.318 177.608 312.409 177.989 312.409 178.429V178.436C312.409 179.007 312.269 179.5 311.99 179.915C311.71 180.329 311.317 180.651 310.809 180.879C310.301 181.104 309.707 181.216 309.025 181.216Z" fill="white"/>
<path d="M93.5483 129.041V127.314H96.7358C97.505 127.314 98.1027 127.118 98.5288 126.725C98.9549 126.326 99.168 125.767 99.168 125.048V125.031C99.168 124.306 98.9549 123.747 98.5288 123.354C98.1027 122.962 97.505 122.765 96.7358 122.765H93.5483V121.022H97.2588C98.0723 121.022 98.7834 121.188 99.3921 121.52C100.001 121.852 100.477 122.32 100.82 122.923C101.163 123.521 101.334 124.221 101.334 125.023V125.04C101.334 125.836 101.163 126.536 100.82 127.14C100.477 127.737 100.001 128.205 99.3921 128.542C98.7834 128.875 98.0723 129.041 97.2588 129.041H93.5483ZM92.4775 133V121.022H94.6191V133H92.4775ZM105.546 133.149C104.976 133.149 104.464 133.039 104.01 132.817C103.562 132.596 103.208 132.283 102.948 131.879C102.693 131.47 102.566 130.988 102.566 130.435V130.418C102.566 129.882 102.699 129.42 102.964 129.032C103.23 128.639 103.62 128.332 104.135 128.111C104.649 127.889 105.275 127.759 106.011 127.721L109.364 127.513V128.875L106.301 129.074C105.72 129.107 105.291 129.229 105.015 129.439C104.738 129.649 104.6 129.943 104.6 130.319V130.335C104.6 130.723 104.746 131.024 105.04 131.24C105.338 131.456 105.718 131.564 106.177 131.564C106.592 131.564 106.963 131.481 107.289 131.315C107.616 131.149 107.873 130.925 108.061 130.643C108.249 130.355 108.343 130.031 108.343 129.671V126.799C108.343 126.346 108.199 126 107.912 125.762C107.624 125.518 107.198 125.396 106.633 125.396C106.163 125.396 105.778 125.479 105.48 125.646C105.181 125.806 104.979 126.036 104.874 126.334L104.865 126.368H102.915L102.923 126.293C102.989 125.784 103.189 125.338 103.521 124.957C103.853 124.575 104.293 124.279 104.84 124.068C105.388 123.858 106.019 123.753 106.733 123.753C107.519 123.753 108.183 123.875 108.725 124.118C109.267 124.356 109.68 124.705 109.962 125.164C110.244 125.618 110.385 126.163 110.385 126.799V133H108.343V131.755H108.202C108.036 132.043 107.82 132.292 107.555 132.502C107.295 132.712 106.996 132.873 106.658 132.983C106.321 133.094 105.95 133.149 105.546 133.149ZM112.812 133V123.927H114.871V133H112.812ZM113.85 122.408C113.512 122.408 113.222 122.289 112.978 122.051C112.735 121.813 112.613 121.528 112.613 121.196C112.613 120.853 112.735 120.565 112.978 120.333C113.222 120.095 113.512 119.976 113.85 119.976C114.187 119.976 114.475 120.095 114.713 120.333C114.957 120.565 115.078 120.853 115.078 121.196C115.078 121.528 114.957 121.813 114.713 122.051C114.475 122.289 114.187 122.408 113.85 122.408ZM117.339 133V123.927H119.406V125.322H119.547C119.763 124.829 120.089 124.445 120.527 124.168C120.964 123.891 121.509 123.753 122.162 123.753C123.175 123.753 123.949 124.046 124.486 124.633C125.023 125.219 125.291 126.052 125.291 127.131V133H123.224V127.613C123.224 126.904 123.075 126.373 122.776 126.019C122.483 125.665 122.024 125.488 121.398 125.488C120.989 125.488 120.635 125.579 120.336 125.762C120.037 125.944 119.807 126.202 119.647 126.534C119.486 126.866 119.406 127.259 119.406 127.712V133H117.339ZM131.221 133.042C130.181 133.042 129.431 132.851 128.972 132.469C128.512 132.087 128.283 131.462 128.283 130.593V125.529H126.871V123.927H128.283V121.703H130.383V123.927H132.292V125.529H130.383V130.103C130.383 130.551 130.477 130.881 130.665 131.091C130.859 131.296 131.168 131.398 131.595 131.398C131.744 131.398 131.866 131.395 131.96 131.39C132.059 131.379 132.17 131.368 132.292 131.356V132.95C132.148 132.978 131.982 133 131.794 133.017C131.611 133.033 131.42 133.042 131.221 133.042ZM139.702 136.188C139.575 136.188 139.442 136.185 139.304 136.179C139.171 136.174 139.041 136.165 138.914 136.154V134.569C138.997 134.58 139.093 134.585 139.204 134.585C139.315 134.591 139.423 134.594 139.528 134.594C139.954 134.594 140.294 134.5 140.549 134.312C140.809 134.129 140.994 133.833 141.105 133.423L141.213 133.008L137.967 123.927H140.225L142.616 131.962L142.051 131.016H142.765L142.217 131.962L144.608 123.927H146.783L143.529 133.199C143.269 133.952 142.97 134.547 142.632 134.984C142.295 135.421 141.888 135.731 141.412 135.914C140.942 136.096 140.372 136.188 139.702 136.188ZM152.015 133.183C151.113 133.183 150.336 132.994 149.683 132.618C149.03 132.236 148.526 131.694 148.172 130.991C147.823 130.288 147.649 129.447 147.649 128.468V128.451C147.649 127.483 147.826 126.647 148.18 125.944C148.534 125.236 149.035 124.694 149.683 124.317C150.336 123.941 151.113 123.753 152.015 123.753C152.917 123.753 153.692 123.941 154.339 124.317C154.992 124.694 155.496 125.233 155.85 125.936C156.204 126.639 156.381 127.477 156.381 128.451V128.468C156.381 129.447 156.204 130.288 155.85 130.991C155.502 131.694 155.001 132.236 154.348 132.618C153.7 132.994 152.923 133.183 152.015 133.183ZM152.015 131.506C152.491 131.506 152.895 131.387 153.227 131.149C153.565 130.905 153.822 130.56 153.999 130.111C154.176 129.658 154.265 129.112 154.265 128.476V128.459C154.265 127.818 154.176 127.272 153.999 126.824C153.822 126.37 153.565 126.025 153.227 125.787C152.895 125.543 152.491 125.421 152.015 125.421C151.539 125.421 151.133 125.543 150.795 125.787C150.457 126.025 150.2 126.37 150.023 126.824C149.846 127.272 149.757 127.818 149.757 128.459V128.476C149.757 129.112 149.846 129.658 150.023 130.111C150.2 130.565 150.455 130.911 150.787 131.149C151.124 131.387 151.534 131.506 152.015 131.506ZM161.381 133.183C160.706 133.183 160.139 133.053 159.68 132.792C159.221 132.527 158.875 132.142 158.642 131.639C158.41 131.13 158.294 130.515 158.294 129.796V123.927H160.36V129.323C160.36 130.026 160.499 130.554 160.776 130.908C161.052 131.262 161.503 131.439 162.129 131.439C162.461 131.439 162.754 131.39 163.008 131.29C163.269 131.185 163.484 131.035 163.656 130.842C163.827 130.648 163.957 130.416 164.046 130.145C164.135 129.868 164.179 129.558 164.179 129.215V123.927H166.246V133H164.179V131.622H164.038C163.899 131.943 163.706 132.222 163.457 132.46C163.208 132.693 162.909 132.873 162.56 133C162.212 133.122 161.819 133.183 161.381 133.183ZM168.689 133V123.927H170.756V125.322H170.897C171.052 124.835 171.329 124.456 171.727 124.185C172.131 123.913 172.632 123.778 173.23 123.778C173.385 123.778 173.537 123.789 173.686 123.811C173.841 123.828 173.968 123.85 174.068 123.877V125.729C173.902 125.69 173.733 125.662 173.562 125.646C173.396 125.623 173.221 125.612 173.039 125.612C172.579 125.612 172.178 125.698 171.835 125.87C171.492 126.041 171.226 126.287 171.038 126.608C170.85 126.924 170.756 127.297 170.756 127.729V133H168.689ZM180.781 133V125.529H179.295V123.927H180.781V123.031C180.781 122.422 180.884 121.918 181.088 121.52C181.299 121.122 181.622 120.826 182.059 120.632C182.497 120.433 183.05 120.333 183.72 120.333C183.941 120.333 184.146 120.341 184.334 120.358C184.522 120.369 184.696 120.388 184.857 120.416V121.86C184.779 121.849 184.68 121.841 184.558 121.835C184.436 121.824 184.303 121.819 184.16 121.819C183.673 121.819 183.327 121.932 183.122 122.159C182.917 122.381 182.815 122.71 182.815 123.147V123.927H184.782V125.529H182.848V133H180.781ZM186.719 133V123.927H188.778V133H186.719ZM187.757 122.408C187.419 122.408 187.129 122.289 186.885 122.051C186.642 121.813 186.52 121.528 186.52 121.196C186.52 120.853 186.642 120.565 186.885 120.333C187.129 120.095 187.419 119.976 187.757 119.976C188.094 119.976 188.382 120.095 188.62 120.333C188.864 120.565 188.985 120.853 188.985 121.196C188.985 121.528 188.864 121.813 188.62 122.051C188.382 122.289 188.094 122.408 187.757 122.408ZM191.246 133V123.927H193.313V125.322H193.454C193.609 124.835 193.886 124.456 194.284 124.185C194.688 123.913 195.189 123.778 195.787 123.778C195.942 123.778 196.094 123.789 196.243 123.811C196.398 123.828 196.525 123.85 196.625 123.877V125.729C196.459 125.69 196.29 125.662 196.119 125.646C195.953 125.623 195.778 125.612 195.596 125.612C195.136 125.612 194.735 125.698 194.392 125.87C194.049 126.041 193.783 126.287 193.595 126.608C193.407 126.924 193.313 127.297 193.313 127.729V133H191.246ZM201.451 133.183C200.682 133.183 200.018 133.075 199.459 132.859C198.905 132.638 198.468 132.333 198.147 131.946C197.826 131.553 197.635 131.099 197.574 130.584V130.568H199.625L199.633 130.584C199.744 130.9 199.951 131.157 200.255 131.356C200.56 131.556 200.969 131.655 201.484 131.655C201.827 131.655 202.129 131.608 202.389 131.514C202.649 131.415 202.854 131.279 203.003 131.107C203.152 130.936 203.227 130.737 203.227 130.51V130.493C203.227 130.228 203.119 130.006 202.903 129.829C202.688 129.646 202.331 129.5 201.833 129.389L200.363 129.057C199.788 128.93 199.312 128.753 198.936 128.526C198.559 128.299 198.277 128.02 198.089 127.688C197.906 127.355 197.815 126.968 197.815 126.525V126.517C197.815 125.969 197.967 125.488 198.272 125.073C198.581 124.658 199.01 124.334 199.558 124.102C200.106 123.869 200.737 123.753 201.451 123.753C202.187 123.753 202.82 123.864 203.352 124.085C203.883 124.306 204.298 124.611 204.597 124.998C204.896 125.385 205.067 125.825 205.111 126.318V126.334H203.169L203.161 126.31C203.083 126.022 202.898 125.778 202.605 125.579C202.317 125.374 201.929 125.272 201.442 125.272C201.138 125.272 200.864 125.319 200.621 125.413C200.383 125.507 200.195 125.64 200.056 125.812C199.923 125.978 199.857 126.174 199.857 126.401V126.409C199.857 126.586 199.901 126.741 199.99 126.874C200.084 127.007 200.231 127.123 200.43 127.223C200.629 127.322 200.892 127.411 201.218 127.488L202.688 127.812C203.579 128.011 204.237 128.307 204.663 128.7C205.089 129.093 205.302 129.622 205.302 130.286V130.302C205.302 130.878 205.136 131.381 204.804 131.813C204.472 132.245 204.016 132.582 203.435 132.826C202.854 133.064 202.192 133.183 201.451 133.183ZM210.825 133.042C209.785 133.042 209.035 132.851 208.576 132.469C208.117 132.087 207.887 131.462 207.887 130.593V125.529H206.476V123.927H207.887V121.703H209.987V123.927H211.896V125.529H209.987V130.103C209.987 130.551 210.081 130.881 210.269 131.091C210.463 131.296 210.773 131.398 211.199 131.398C211.348 131.398 211.47 131.395 211.564 131.39C211.664 131.379 211.774 131.368 211.896 131.356V132.95C211.752 132.978 211.586 133 211.398 133.017C211.216 133.033 211.025 133.042 210.825 133.042ZM218.999 133V125.529H217.514V123.927H218.999V123.031C218.999 122.422 219.102 121.918 219.307 121.52C219.517 121.122 219.841 120.826 220.278 120.632C220.715 120.433 221.268 120.333 221.938 120.333C222.159 120.333 222.364 120.341 222.552 120.358C222.74 120.369 222.915 120.388 223.075 120.416V121.86C222.998 121.849 222.898 121.841 222.776 121.835C222.654 121.824 222.522 121.819 222.378 121.819C221.891 121.819 221.545 121.932 221.34 122.159C221.135 122.381 221.033 122.71 221.033 123.147V123.927H223V125.529H221.066V133H218.999ZM224.996 133V120.416H227.062V133H224.996ZM233.499 133.183C232.597 133.183 231.819 132.994 231.166 132.618C230.513 132.236 230.009 131.694 229.655 130.991C229.307 130.288 229.132 129.447 229.132 128.468V128.451C229.132 127.483 229.309 126.647 229.664 125.944C230.018 125.236 230.519 124.694 231.166 124.317C231.819 123.941 232.597 123.753 233.499 123.753C234.401 123.753 235.175 123.941 235.823 124.317C236.476 124.694 236.979 125.233 237.334 125.936C237.688 126.639 237.865 127.477 237.865 128.451V128.468C237.865 129.447 237.688 130.288 237.334 130.991C236.985 131.694 236.484 132.236 235.831 132.618C235.184 132.994 234.406 133.183 233.499 133.183ZM233.499 131.506C233.974 131.506 234.378 131.387 234.71 131.149C235.048 130.905 235.305 130.56 235.482 130.111C235.66 129.658 235.748 129.112 235.748 128.476V128.459C235.748 127.818 235.66 127.272 235.482 126.824C235.305 126.37 235.048 126.025 234.71 125.787C234.378 125.543 233.974 125.421 233.499 125.421C233.023 125.421 232.616 125.543 232.278 125.787C231.941 126.025 231.683 126.37 231.506 126.824C231.329 127.272 231.241 127.818 231.241 128.459V128.476C231.241 129.112 231.329 129.658 231.506 130.111C231.683 130.565 231.938 130.911 232.27 131.149C232.608 131.387 233.017 131.506 233.499 131.506ZM241.23 133L238.764 123.927H240.839L242.342 130.75H242.491L244.234 123.927H246.202L247.953 130.75H248.103L249.605 123.927H251.655L249.19 133H247.032L245.264 126.426H245.123L243.363 133H241.23Z" fill="#8E8E93"/>
</svg>
