<svg width="41" height="41" viewBox="0 0 41 41" fill="none" xmlns="http://www.w3.org/2000/svg">
<path d="M4.125 29.2734C2.73438 29.2734 1.69531 28.9297 1.00781 28.2422C0.335938 27.5391 0 26.4609 0 25.0078V15.6094C0 14.1562 0.335938 13.0781 1.00781 12.375C1.69531 11.6719 2.73438 11.3203 4.125 11.3203H11.0625C11.3594 11.3203 11.5938 11.2344 11.7656 11.0625L22.6172 1.33594C23.1016 0.914062 23.5312 0.585938 23.9062 0.351562C24.2812 0.117188 24.7031 0 25.1719 0C25.8438 0 26.3828 0.234375 26.7891 0.703125C27.2109 1.15625 27.4219 1.71094 27.4219 2.36719V38.2266C27.4219 38.8516 27.2109 39.3828 26.7891 39.8203C26.3828 40.2578 25.8516 40.4766 25.1953 40.4766C24.7266 40.4766 24.2891 40.3672 23.8828 40.1484C23.4766 39.9453 23.0547 39.6406 22.6172 39.2344L11.7656 29.5312C11.5625 29.3594 11.3281 29.2734 11.0625 29.2734H4.125ZM4.21875 26.6484H11.6719C12 26.6484 12.2891 26.6953 12.5391 26.7891C12.8047 26.8672 13.0703 27.0234 13.3359 27.2578L23.8359 36.6562C23.9922 36.8125 24.1406 36.8906 24.2812 36.8906C24.5156 36.8906 24.6328 36.7578 24.6328 36.4922V3.9375C24.6328 3.70312 24.5156 3.58594 24.2812 3.58594C24.1875 3.58594 24.1016 3.60938 24.0234 3.65625C23.9453 3.6875 23.875 3.74219 23.8125 3.82031L13.3359 13.3594C13.0703 13.6094 12.8047 13.7734 12.5391 13.8516C12.2891 13.9297 12 13.9688 11.6719 13.9688H4.21875C3.71875 13.9688 3.35938 14.0859 3.14062 14.3203C2.92188 14.5391 2.8125 14.9062 2.8125 15.4219V25.2188C2.8125 25.7188 2.92188 26.0859 3.14062 26.3203C3.35938 26.5391 3.71875 26.6484 4.21875 26.6484ZM35.9531 30.0938C35.6094 29.8438 35.4141 29.5234 35.3672 29.1328C35.3203 28.7266 35.4297 28.3359 35.6953 27.9609C36.4766 26.8828 37.0625 25.7031 37.4531 24.4219C37.8594 23.125 38.0625 21.7344 38.0625 20.25C38.0625 18.7656 37.8594 17.375 37.4531 16.0781C37.0625 14.7812 36.4766 13.6016 35.6953 12.5391C35.4141 12.1641 35.2969 11.7812 35.3438 11.3906C35.4062 10.9844 35.6094 10.6562 35.9531 10.4062C36.2812 10.1875 36.625 10.1172 36.9844 10.1953C37.3594 10.2578 37.6719 10.4609 37.9219 10.8047C38.8125 11.9766 39.5234 13.3828 40.0547 15.0234C40.5859 16.6484 40.8516 18.3906 40.8516 20.25C40.8516 22.0938 40.5859 23.8359 40.0547 25.4766C39.5234 27.1172 38.8125 28.5234 37.9219 29.6953C37.6719 30.0391 37.3594 30.2422 36.9844 30.3047C36.625 30.3672 36.2812 30.2969 35.9531 30.0938Z" fill="white"/>
</svg>
