<svg width="42" height="44" viewBox="0 0 42 44" fill="none" xmlns="http://www.w3.org/2000/svg">
<path d="M8.71875 29.2734C7.32812 29.2734 6.28906 28.9297 5.60156 28.2422C4.92969 27.5391 4.59375 26.4609 4.59375 25.0078V15.6094C4.59375 15.1094 4.64062 14.6641 4.73438 14.2734C4.82812 13.8672 4.96875 13.5234 5.15625 13.2422L7.40625 15.4922V25.2188C7.40625 25.7188 7.51562 26.0859 7.73438 26.3203C7.95312 26.5391 8.3125 26.6484 8.8125 26.6484H16.3359C16.6641 26.6484 16.9375 26.6875 17.1562 26.7656C17.375 26.8281 17.6016 26.9688 17.8359 27.1875L29.2031 37.3359L31.5234 39.6094C31.3047 39.8906 31.0469 40.1016 30.75 40.2422C30.4688 40.3984 30.1562 40.4766 29.8125 40.4766C29.3281 40.4766 28.8828 40.3672 28.4766 40.1484C28.0859 39.9453 27.6641 39.6406 27.2109 39.2344L16.3594 29.5312C16.1562 29.3594 15.9219 29.2734 15.6562 29.2734H8.71875ZM32.0156 27.1172L29.2266 24.3047V3.9375C29.2266 3.70312 29.1094 3.58594 28.875 3.58594C28.7812 3.58594 28.6953 3.60938 28.6172 3.65625C28.5391 3.6875 28.4688 3.74219 28.4062 3.82031L18.0938 13.1953L16.1719 11.25L27.2109 1.33594C27.6953 0.914062 28.125 0.585938 28.5 0.351562C28.875 0.117188 29.2969 0 29.7656 0C30.4375 0 30.9766 0.234375 31.3828 0.703125C31.8047 1.15625 32.0156 1.71094 32.0156 2.36719V27.1172ZM39.3984 42.9375L0.398438 3.98438C0.132812 3.70312 0 3.36719 0 2.97656C0 2.58594 0.132812 2.25781 0.398438 1.99219C0.679688 1.71094 1.00781 1.57812 1.38281 1.59375C1.77344 1.59375 2.10156 1.72656 2.36719 1.99219L41.3438 40.9688C41.625 41.25 41.7656 41.5781 41.7656 41.9531C41.7656 42.3281 41.625 42.6562 41.3438 42.9375C41.0938 43.2188 40.7734 43.3594 40.3828 43.3594C39.9922 43.3594 39.6641 43.2188 39.3984 42.9375Z" fill="white"/>
</svg>
