<svg width="48" height="48" viewBox="0 0 48 48" fill="none" xmlns="http://www.w3.org/2000/svg">
<path d="M23.5078 47.0156C20.2578 47.0156 17.2109 46.4062 14.3672 45.1875C11.5234 43.9688 9.02344 42.2812 6.86719 40.125C4.72656 37.9688 3.04688 35.4766 1.82812 32.6484C0.609375 29.8047 0 26.7578 0 23.5078C0 20.2578 0.609375 17.2188 1.82812 14.3906C3.04688 11.5469 4.72656 9.04688 6.86719 6.89062C9.02344 4.71875 11.5234 3.03125 14.3672 1.82812C17.2109 0.609375 20.2578 0 23.5078 0C26.7422 0 29.7812 0.609375 32.625 1.82812C35.4688 3.03125 37.9609 4.71875 40.1016 6.89062C42.2578 9.04688 43.9453 11.5469 45.1641 14.3906C46.3984 17.2188 47.0156 20.2578 47.0156 23.5078C47.0156 26.7578 46.3984 29.8047 45.1641 32.6484C43.9453 35.4766 42.2578 37.9688 40.1016 40.125C37.9609 42.2812 35.4688 43.9688 32.625 45.1875C29.7812 46.4062 26.7422 47.0156 23.5078 47.0156ZM23.5078 43.9922C26.3359 43.9922 28.9844 43.4609 31.4531 42.3984C33.9375 41.3359 36.1172 39.8672 37.9922 37.9922C39.8672 36.1172 41.3359 33.9453 42.3984 31.4766C43.4609 28.9922 43.9922 26.3359 43.9922 23.5078C43.9922 20.6797 43.4609 18.0234 42.3984 15.5391C41.3359 13.0547 39.8672 10.8828 37.9922 9.02344C36.1172 7.14844 33.9375 5.67969 31.4531 4.61719C28.9844 3.55469 26.3359 3.02344 23.5078 3.02344C20.6797 3.02344 18.0234 3.55469 15.5391 4.61719C13.0703 5.67969 10.8984 7.14844 9.02344 9.02344C7.14844 10.8828 5.67969 13.0547 4.61719 15.5391C3.55469 18.0234 3.02344 20.6797 3.02344 23.5078C3.02344 26.3359 3.55469 28.9922 4.61719 31.4766C5.67969 33.9453 7.14844 36.1172 9.02344 37.9922C10.8984 39.8672 13.0703 41.3359 15.5391 42.3984C18.0234 43.4609 20.6797 43.9922 23.5078 43.9922ZM20.9531 34.6172C20.6562 34.6172 20.3828 34.5547 20.1328 34.4297C19.8984 34.2891 19.6719 34.0781 19.4531 33.7969L13.1719 26.2734C12.8906 25.8828 12.75 25.5078 12.75 25.1484C12.75 24.7578 12.8828 24.4219 13.1484 24.1406C13.4297 23.8594 13.7578 23.7188 14.1328 23.7188C14.3984 23.7188 14.6328 23.7734 14.8359 23.8828C15.0547 23.9766 15.2656 24.1562 15.4688 24.4219L20.8828 31.1016L31.5 14.3203C31.8438 13.7891 32.2656 13.5234 32.7656 13.5234C33.1406 13.5234 33.4766 13.6484 33.7734 13.8984C34.0703 14.1484 34.2188 14.4688 34.2188 14.8594C34.2188 15.0469 34.1719 15.2422 34.0781 15.4453C34 15.6328 33.9062 15.8125 33.7969 15.9844L22.4062 33.7969C22.0312 34.3438 21.5469 34.6172 20.9531 34.6172Z" fill="white"/>
</svg>
