<svg width="26" height="26" viewBox="0 0 26 26" fill="none" xmlns="http://www.w3.org/2000/svg">
<path d="M12.9492 24.0117C12.8086 24.0117 12.6641 24.0078 12.5156 24C12.375 23.9922 12.2344 23.9844 12.0938 23.9766L11.4609 25.1836C11.3828 25.332 11.2773 25.4375 11.1445 25.5C11.0117 25.5703 10.8633 25.5938 10.6992 25.5703C10.5352 25.5312 10.4023 25.4609 10.3008 25.3594C10.207 25.2578 10.1484 25.1211 10.125 24.9492L9.9375 23.6016C9.35938 23.4375 8.82422 23.2422 8.33203 23.0156L7.3125 23.9297C7.19531 24.0469 7.0625 24.1133 6.91406 24.1289C6.76562 24.1445 6.61719 24.1094 6.46875 24.0234C6.32812 23.9453 6.23047 23.8359 6.17578 23.6953C6.12109 23.5625 6.10938 23.4141 6.14062 23.25L6.42188 21.9258C6.19531 21.7617 5.96875 21.5859 5.74219 21.3984C5.52344 21.2188 5.3125 21.0234 5.10938 20.8125L3.85547 21.3398C3.53516 21.4648 3.25781 21.3945 3.02344 21.1289C2.92188 21.0039 2.86328 20.8711 2.84766 20.7305C2.83984 20.582 2.88281 20.4336 2.97656 20.2852L3.70312 19.1484C3.53906 18.9062 3.38672 18.6641 3.24609 18.4219C3.10547 18.1719 2.97266 17.918 2.84766 17.6602L1.48828 17.707C1.32422 17.7148 1.17969 17.6797 1.05469 17.6016C0.929688 17.5234 0.835938 17.4023 0.773438 17.2383C0.726562 17.082 0.722656 16.9336 0.761719 16.793C0.800781 16.6523 0.886719 16.5312 1.01953 16.4297L2.09766 15.5977C2.02734 15.3164 1.96484 15.0391 1.91016 14.7656C1.86328 14.4844 1.82812 14.1953 1.80469 13.8984L0.503906 13.4883C0.339844 13.4414 0.214844 13.3594 0.128906 13.2422C0.0429688 13.1172 0 12.9727 0 12.8086C0 12.6367 0.0429688 12.4922 0.128906 12.375C0.214844 12.2578 0.339844 12.1758 0.503906 12.1289L1.80469 11.7188C1.82812 11.4219 1.86328 11.1367 1.91016 10.8633C1.96484 10.582 2.02734 10.3008 2.09766 10.0195L1.01953 9.1875C0.730469 8.96875 0.652344 8.69922 0.785156 8.37891C0.839844 8.22266 0.929688 8.10547 1.05469 8.02734C1.17969 7.94141 1.32812 7.90234 1.5 7.91016L2.84766 7.95703C2.97266 7.69922 3.10547 7.44922 3.24609 7.20703C3.38672 6.95703 3.53906 6.71484 3.70312 6.48047L2.97656 5.33203C2.78125 5.02734 2.79688 4.74609 3.02344 4.48828C3.14062 4.36328 3.26953 4.28125 3.41016 4.24219C3.55078 4.20313 3.69922 4.21484 3.85547 4.27734L5.10938 4.79297C5.32031 4.59766 5.53125 4.41016 5.74219 4.23047C5.96094 4.04297 6.1875 3.86719 6.42188 3.70312L6.14062 2.36719C6.10156 2.20312 6.10938 2.05469 6.16406 1.92188C6.22656 1.78125 6.32812 1.67188 6.46875 1.59375C6.61719 1.51562 6.76562 1.48438 6.91406 1.5C7.0625 1.50781 7.19922 1.57031 7.32422 1.6875L8.32031 2.60156C8.57812 2.48438 8.83984 2.375 9.10547 2.27344C9.37109 2.17187 9.64453 2.08203 9.92578 2.00391L10.125 0.65625C10.1484 0.492188 10.207 0.359375 10.3008 0.257812C10.4023 0.148438 10.5391 0.078125 10.7109 0.046875C10.8672 0.0234375 11.0117 0.0429688 11.1445 0.105469C11.2773 0.167969 11.3828 0.277344 11.4609 0.433594L12.0938 1.62891C12.2344 1.62109 12.375 1.61719 12.5156 1.61719C12.6641 1.60937 12.8086 1.60547 12.9492 1.60547C13.0977 1.60547 13.2422 1.60937 13.3828 1.61719C13.5234 1.61719 13.6641 1.62109 13.8047 1.62891L14.4492 0.421875C14.5273 0.273437 14.6289 0.167969 14.7539 0.105469C14.8867 0.0351562 15.0391 0.015625 15.2109 0.046875C15.3672 0.0859375 15.4961 0.15625 15.5977 0.257812C15.6992 0.359375 15.7578 0.492188 15.7734 0.65625L15.9609 2.00391C16.2422 2.08203 16.5156 2.17187 16.7812 2.27344C17.0547 2.36719 17.3164 2.47266 17.5664 2.58984L18.5859 1.6875C18.7109 1.57031 18.8438 1.50391 18.9844 1.48828C19.1328 1.47266 19.2852 1.50781 19.4414 1.59375C19.582 1.67188 19.6797 1.78125 19.7344 1.92188C19.7891 2.05469 19.8008 2.20312 19.7695 2.36719L19.4766 3.69141C19.7031 3.85547 19.9258 4.03125 20.1445 4.21875C20.3711 4.39844 20.5859 4.58984 20.7891 4.79297L22.0547 4.27734C22.375 4.14453 22.6523 4.21094 22.8867 4.47656C22.9883 4.60937 23.043 4.75 23.0508 4.89844C23.0586 5.03906 23.0156 5.18359 22.9219 5.33203L22.207 6.46875C22.3633 6.70312 22.5117 6.94531 22.6523 7.19531C22.8008 7.4375 22.9375 7.6875 23.0625 7.94531L24.4102 7.91016C24.582 7.90234 24.7266 7.9375 24.8438 8.01562C24.9688 8.09375 25.0625 8.21484 25.125 8.37891C25.1797 8.53516 25.1875 8.68359 25.1484 8.82422C25.1094 8.96484 25.0195 9.08594 24.8789 9.1875L23.8008 10.0195C23.8789 10.293 23.9414 10.5703 23.9883 10.8516C24.0352 11.1328 24.0742 11.4219 24.1055 11.7188L25.3945 12.1289C25.5586 12.1758 25.6836 12.2578 25.7695 12.375C25.8633 12.4922 25.9102 12.6367 25.9102 12.8086C25.9102 12.9727 25.8633 13.1172 25.7695 13.2422C25.6836 13.3594 25.5586 13.4414 25.3945 13.4883L24.1055 13.8984C24.0742 14.1953 24.0352 14.4844 23.9883 14.7656C23.9414 15.0391 23.8789 15.3164 23.8008 15.5977L24.8906 16.4297C25.0234 16.5312 25.1094 16.6523 25.1484 16.793C25.1953 16.9336 25.1875 17.0781 25.125 17.2266C25.0625 17.3906 24.9688 17.5156 24.8438 17.6016C24.7266 17.6797 24.582 17.7148 24.4102 17.707L23.0625 17.6602C22.9375 17.9102 22.8008 18.1602 22.6523 18.4102C22.5117 18.6523 22.3633 18.8945 22.207 19.1367L22.9336 20.2852C23.0273 20.4258 23.0664 20.5703 23.0508 20.7188C23.043 20.8672 22.9844 21.0039 22.875 21.1289C22.7656 21.2539 22.6406 21.3359 22.5 21.375C22.3594 21.4141 22.207 21.4023 22.043 21.3398L20.7891 20.8242C20.5859 21.0195 20.375 21.207 20.1562 21.3867C19.9375 21.5742 19.7109 21.75 19.4766 21.9141L19.7695 23.25C19.8008 23.4141 19.7891 23.5625 19.7344 23.6953C19.6797 23.8281 19.5781 23.9375 19.4297 24.0234C19.2812 24.1016 19.1328 24.1328 18.9844 24.1172C18.8359 24.1094 18.7031 24.0469 18.5859 23.9297L17.5781 23.0156C17.3203 23.1328 17.0586 23.2383 16.793 23.332C16.5273 23.4336 16.2539 23.5234 15.9727 23.6016L15.7734 24.9609C15.7578 25.125 15.6992 25.2578 15.5977 25.3594C15.4961 25.4688 15.3633 25.5391 15.1992 25.5703C15.0352 25.5859 14.8867 25.5625 14.7539 25.5C14.6289 25.4375 14.5273 25.332 14.4492 25.1836L13.8047 23.9766C13.6641 23.9844 13.5234 23.9922 13.3828 24C13.2422 24.0078 13.0977 24.0117 12.9492 24.0117ZM12.9492 22.0664C14.2305 22.0664 15.4297 21.8242 16.5469 21.3398C17.6641 20.8633 18.6484 20.2031 19.5 19.3594C20.3516 18.5078 21.0156 17.5234 21.4922 16.4062C21.9688 15.2891 22.207 14.0898 22.207 12.8086C22.207 11.5273 21.9688 10.3281 21.4922 9.21094C21.0156 8.09375 20.3516 7.10938 19.5 6.25781C18.6484 5.40625 17.6641 4.74219 16.5469 4.26562C15.4297 3.78906 14.2305 3.55078 12.9492 3.55078C11.6758 3.55078 10.4766 3.78906 9.35156 4.26562C8.23438 4.74219 7.25 5.40625 6.39844 6.25781C5.55469 7.10938 4.89062 8.09375 4.40625 9.21094C3.92969 10.3281 3.69141 11.5273 3.69141 12.8086C3.69141 14.0898 3.92969 15.2891 4.40625 16.4062C4.89062 17.5234 5.55469 18.5078 6.39844 19.3594C7.25 20.2031 8.23438 20.8633 9.35156 21.3398C10.4766 21.8242 11.6758 22.0664 12.9492 22.0664ZM10.9102 11.0156L6.9375 4.23047L8.37891 3.42188L12.293 10.1367L10.9102 11.0156ZM15.5625 13.6055V11.9883H23.3555V13.6055H15.5625ZM12.3164 15.5156L8.25 22.1953L6.82031 21.3516L10.9453 14.625L12.3164 15.5156ZM12.9609 15.8789C12.3906 15.8789 11.8711 15.7422 11.4023 15.4688C10.9414 15.1875 10.5742 14.8164 10.3008 14.3555C10.0273 13.8867 9.89062 13.3711 9.89062 12.8086C9.89062 12.2383 10.0273 11.7227 10.3008 11.2617C10.5742 10.8008 10.9414 10.4336 11.4023 10.1602C11.8711 9.87891 12.3906 9.73828 12.9609 9.73828C13.5234 9.73828 14.0352 9.87891 14.4961 10.1602C14.9648 10.4336 15.3359 10.8008 15.6094 11.2617C15.8906 11.7227 16.0312 12.2383 16.0312 12.8086C16.0312 13.3711 15.8906 13.8867 15.6094 14.3555C15.3359 14.8164 14.9648 15.1875 14.4961 15.4688C14.0352 15.7422 13.5234 15.8789 12.9609 15.8789ZM12.9609 14.1211C13.3203 14.1211 13.6289 13.9922 13.8867 13.7344C14.1445 13.4766 14.2734 13.168 14.2734 12.8086C14.2734 12.4492 14.1445 12.1406 13.8867 11.8828C13.6289 11.625 13.3203 11.4961 12.9609 11.4961C12.6016 11.4961 12.293 11.625 12.0352 11.8828C11.7773 12.1406 11.6484 12.4492 11.6484 12.8086C11.6484 13.168 11.7773 13.4766 12.0352 13.7344C12.293 13.9922 12.6016 14.1211 12.9609 14.1211Z" fill="white"/>
</svg>
