<svg width="95" height="95" viewBox="0 0 95 95" fill="none" xmlns="http://www.w3.org/2000/svg">
<path d="M47.0156 94.0312C40.5156 94.0312 34.4219 92.8125 28.7344 90.375C23.0469 87.9375 18.0469 84.5625 13.7344 80.25C9.45312 75.9375 6.09375 70.9531 3.65625 65.2969C1.21875 59.6094 0 53.5156 0 47.0156C0 40.5156 1.21875 34.4375 3.65625 28.7812C6.09375 23.0938 9.45312 18.0938 13.7344 13.7812C18.0469 9.4375 23.0469 6.0625 28.7344 3.65625C34.4219 1.21875 40.5156 0 47.0156 0C53.4844 0 59.5625 1.21875 65.25 3.65625C70.9375 6.0625 75.9219 9.4375 80.2031 13.7812C84.5156 18.0938 87.8906 23.0938 90.3281 28.7812C92.7969 34.4375 94.0312 40.5156 94.0312 47.0156C94.0312 53.5156 92.7969 59.6094 90.3281 65.2969C87.8906 70.9531 84.5156 75.9375 80.2031 80.25C75.9219 84.5625 70.9375 87.9375 65.25 90.375C59.5625 92.8125 53.4844 94.0312 47.0156 94.0312ZM47.0156 87.9844C52.6719 87.9844 57.9688 86.9219 62.9062 84.7969C67.875 82.6719 72.2344 79.7344 75.9844 75.9844C79.7344 72.2344 82.6719 67.8906 84.7969 62.9531C86.9219 57.9844 87.9844 52.6719 87.9844 47.0156C87.9844 41.3594 86.9219 36.0469 84.7969 31.0781C82.6719 26.1094 79.7344 21.7656 75.9844 18.0469C72.2344 14.2969 67.875 11.3594 62.9062 9.23438C57.9688 7.10938 52.6719 6.04688 47.0156 6.04688C41.3594 6.04688 36.0469 7.10938 31.0781 9.23438C26.1406 11.3594 21.7969 14.2969 18.0469 18.0469C14.2969 21.7656 11.3594 26.1094 9.23438 31.0781C7.10938 36.0469 6.04688 41.3594 6.04688 47.0156C6.04688 52.6719 7.10938 57.9844 9.23438 62.9531C11.3594 67.8906 14.2969 72.2344 18.0469 75.9844C21.7969 79.7344 26.1406 82.6719 31.0781 84.7969C36.0469 86.9219 41.3594 87.9844 47.0156 87.9844ZM33.9844 64.9688C32.9219 64.9688 32.125 64.7031 31.5938 64.1719C31.0938 63.6406 30.8438 62.9531 30.8438 62.1094V31.8281C30.8438 30.9531 31.0938 30.25 31.5938 29.7188C32.125 29.1875 32.9219 28.9219 33.9844 28.9219H38.6719C39.7344 28.9219 40.5156 29.1875 41.0156 29.7188C41.5469 30.25 41.8125 30.9531 41.8125 31.8281V62.1094C41.8125 62.9531 41.5469 63.6406 41.0156 64.1719C40.5156 64.7031 39.7344 64.9688 38.6719 64.9688H33.9844ZM55.3594 64.9688C54.2969 64.9688 53.5 64.7031 52.9688 64.1719C52.4688 63.6406 52.2188 62.9531 52.2188 62.1094V31.8281C52.2188 30.9531 52.4688 30.25 52.9688 29.7188C53.5 29.1875 54.2969 28.9219 55.3594 28.9219H60C61.0625 28.9219 61.8438 29.1875 62.3438 29.7188C62.875 30.25 63.1406 30.9531 63.1406 31.8281V62.1094C63.1406 62.9531 62.875 63.6406 62.3438 64.1719C61.8438 64.7031 61.0625 64.9688 60 64.9688H55.3594Z" fill="white"/>
</svg>
