<svg width="34" height="35" viewBox="0 0 34 35" fill="none" xmlns="http://www.w3.org/2000/svg">
<path d="M0 32.1094V2.78906C0 1.83594 0.242188 1.13281 0.726562 0.679688C1.21094 0.226563 1.78906 0 2.46094 0C3.03906 0 3.60938 0.15625 4.17188 0.46875L28.7812 14.9766C29.4844 15.3828 29.9922 15.7734 30.3047 16.1484C30.6172 16.5078 30.7734 16.9453 30.7734 17.4609C30.7734 17.9609 30.6172 18.3984 30.3047 18.7734C29.9922 19.1484 29.4844 19.5391 28.7812 19.9453L4.17188 34.4531C3.60938 34.7656 3.03906 34.9219 2.46094 34.9219C1.78906 34.9219 1.21094 34.6953 0.726562 34.2422C0.242188 33.7891 0 33.0781 0 32.1094ZM2.88281 30.9141C2.88281 31.2891 3.04688 31.4766 3.375 31.4766C3.48438 31.4766 3.59375 31.4375 3.70312 31.3594L26.625 17.8359C26.8125 17.7266 26.9062 17.6016 26.9062 17.4609C26.9062 17.3047 26.8125 17.1719 26.625 17.0625L3.70312 3.5625C3.59375 3.48438 3.48438 3.44531 3.375 3.44531C3.04688 3.44531 2.88281 3.63281 2.88281 4.00781V30.9141ZM32.1797 34.9219C31.7422 34.9219 31.375 34.7734 31.0781 34.4766C30.7969 34.1953 30.6562 33.8438 30.6562 33.4219V1.47656C30.6562 1.05469 30.7969 0.703125 31.0781 0.421875C31.375 0.140625 31.7422 0 32.1797 0C32.6016 0 32.9609 0.140625 33.2578 0.421875C33.5547 0.703125 33.7031 1.05469 33.7031 1.47656V33.4219C33.7031 33.8438 33.5547 34.1953 33.2578 34.4766C32.9609 34.7734 32.6016 34.9219 32.1797 34.9219Z" fill="white"/>
</svg>
